<?xml version="1.0" ?><!DOCTYPE svg  PUBLIC '-//W3C//DTD SVG 1.1//EN'  'http://www.w3.org/Graphics/SVG/1.1/DTD/svg11.dtd'><svg height="512px" style="enable-background:new 0 0 512 512;" version="1.1" viewBox="0 0 512 512" width="512px" xml:space="preserve" xmlns="http://www.w3.org/2000/svg" xmlns:xlink="http://www.w3.org/1999/xlink"><g id="comp_x5F_272-raspberry-pi"><g><path d="    M407.354,234.956l-3.324-5.838c0.09-41.676-19.221-58.652-41.765-71.586c6.826-1.796,13.831-3.232,15.808-11.855    c11.767-2.965,14.191-8.444,15.358-14.193c3.055-2.064,13.293-7.813,12.215-17.693c5.749-3.952,8.982-9.072,7.276-16.256    c6.198-6.738,7.815-12.307,5.21-17.426c7.454-9.251,4.131-14.011,0.988-18.771c5.567-10.06,0.628-20.838-14.911-19.042    c-6.198-9.072-19.67-7.006-21.736-7.006c-2.334-2.875-5.389-5.389-14.819-4.222c-6.107-5.479-12.933-4.492-20.029-1.886    c-8.353-6.557-13.922-1.258-20.299,0.719c-10.15-3.234-12.485,1.167-17.427,3.053c-11.046-2.335-14.46,2.695-19.759,7.995    l-6.198-0.09c-16.704,9.7-24.968,29.46-27.933,39.61c-2.963-10.15-11.227-29.91-27.933-39.61l-6.198,0.09    c-5.299-5.299-8.713-10.33-19.759-7.995c-5.03-1.796-7.276-6.288-17.426-3.053c-4.132-1.258-7.994-3.953-12.484-3.864    c-2.335,0.09-4.941,0.899-7.814,3.145c-7.096-2.694-13.921-3.592-20.03,1.886c-9.431-1.167-12.575,1.257-14.82,4.222    c-2.066,0-15.54-2.066-21.736,7.006c-15.539-1.796-20.39,8.982-14.821,19.042c-3.144,4.851-6.467,9.611,0.989,18.771    c-2.605,5.119-0.989,10.688,5.209,17.426c-1.617,7.185,1.618,12.305,7.276,16.256c-1.078,9.88,9.161,15.629,12.215,17.693    c1.167,5.749,3.593,11.139,15.359,14.193c1.976,8.533,8.982,10.059,15.809,11.855c-22.545,12.935-41.856,29.91-41.767,71.586    l-3.322,5.838C78.886,250.404,55.624,300.254,92,340.673c2.336,12.663,6.377,21.735,9.881,31.795    c5.299,40.598,39.969,59.552,49.042,61.796c13.382,10.059,27.663,19.581,46.885,26.229c18.232,18.502,37.993,25.507,57.753,25.507    h0.899c19.85,0,39.519-7.005,57.663-25.507c19.312-6.647,33.502-16.17,46.886-26.229c9.16-2.244,43.74-21.198,49.039-61.796    c3.504-10.06,7.547-19.132,9.882-31.795C456.394,300.164,433.132,250.404,407.354,234.956L407.354,234.956z" style="fill:none;stroke:#000000;stroke-width:10;stroke-linecap:round;stroke-linejoin:round;stroke-miterlimit:10;"/><path d="    M387.413,227.77c-1.348,16.796-88.83-58.473-73.74-60.987C354.721,160.047,388.761,184.027,387.413,227.77z" style="fill:none;stroke:#000000;stroke-width:10;stroke-linecap:round;stroke-linejoin:round;stroke-miterlimit:10;"/><path d="    M348.791,311.392c-22.006,14.192-53.711,5.03-70.776-20.478c-17.065-25.509-13.113-57.665,8.893-71.856    c22.005-14.191,53.711-5.029,70.777,20.479C374.749,265.047,370.796,297.2,348.791,311.392L348.791,311.392z" style="fill:none;stroke:#000000;stroke-width:10;stroke-linecap:round;stroke-linejoin:round;stroke-miterlimit:10;"/><path d="    M294.895,58.477c0.619,3.251,1.393,5.263,2.245,5.881c4.179-4.488,7.584-9.055,13.001-13.389c0,2.555-1.315,5.263,1.934,7.274    c2.864-3.869,6.811-7.351,11.996-10.292c-2.476,4.333-0.465,5.65,0.928,7.43c3.948-3.405,7.74-6.81,15.015-9.519    c-2.013,2.399-4.798,4.798-1.857,7.583c4.103-2.553,8.203-5.107,17.878-6.888c-2.167,2.399-6.733,4.876-3.948,7.275    c5.109-1.935,10.834-3.405,17.104-4.179c-3.02,2.477-5.496,4.875-3.02,6.811c5.495-1.703,13.08-3.948,20.432-2.013l-4.644,4.722    c-0.541,0.618,10.911,0.464,18.495,0.618c-2.786,3.87-5.572,7.508-7.197,14.085c0.774,0.775,4.489,0.31,8.049,0    c-3.638,7.662-9.906,9.519-11.376,12.846c2.244,1.704,5.262,1.239,8.667,0.078c-2.631,5.34-8.048,9.055-12.382,13.39    c1.084,0.773,3.018,1.238,7.507,0.696c-4.024,4.257-8.822,8.126-14.549,11.608c1.006,1.161,4.488,1.161,7.738,1.239    c-5.185,5.031-11.841,7.662-18.108,10.989c3.095,2.089,5.339,1.625,7.739,1.625c-4.411,3.638-11.919,5.495-18.884,7.74    c1.315,2.089,2.633,2.63,5.495,3.172c-7.353,4.102-17.955,2.245-20.895,4.334c0.696,2.089,2.786,3.405,5.184,4.488    c-11.917,0.697-44.344-0.464-50.612-24.997c12.15-13.389,34.361-29.021,72.514-48.446c-29.718,9.905-56.495,23.216-78.937,41.403    C263.861,101.738,282.048,70.782,294.895,58.477L294.895,58.477z" style="fill:none;stroke:#000000;stroke-width:10;stroke-linecap:round;stroke-linejoin:round;stroke-miterlimit:10;"/><path d="    M256.907,155.375c21.735-0.269,48.592,15.989,48.502,31.168c-0.09,13.472-18.862,24.34-48.322,24.16    c-28.832-0.359-48.233-13.652-48.143-26.766C208.944,173.249,232.477,154.748,256.907,155.375L256.907,155.375z" style="fill:none;stroke:#000000;stroke-width:10;stroke-linecap:round;stroke-linejoin:round;stroke-miterlimit:10;"/><path d="    M150.305,137.262c2.863-0.542,4.18-1.162,5.495-3.173c-6.966-2.167-14.473-4.102-18.884-7.74c2.399,0,4.644,0.542,7.74-1.625    c-6.269-3.327-12.925-5.959-18.11-10.99c3.25-0.078,6.733,0,7.739-1.239c-5.727-3.482-10.525-7.352-14.549-11.608    c4.488,0.542,6.423,0.077,7.506-0.696c-4.334-4.334-9.828-8.049-12.382-13.39c3.327,1.161,6.423,1.548,8.667-0.078    c-1.47-3.25-7.739-5.185-11.376-12.847c3.56,0.31,7.275,0.774,8.049,0c-1.625-6.578-4.489-10.293-7.198-14.086    c7.585-0.077,19.039,0,18.497-0.619l-4.644-4.721c7.353-1.935,14.938,0.31,20.432,2.013c2.477-1.936-0.077-4.334-3.019-6.812    c6.269,0.852,11.918,2.245,17.104,4.18c2.708-2.399-1.781-4.876-3.947-7.276c9.675,1.782,13.775,4.335,17.878,6.889    c2.94-2.786,0.154-5.186-1.858-7.584c7.275,2.631,11.068,6.114,15.015,9.519c1.316-1.78,3.405-3.096,0.928-7.43    c5.186,2.942,9.132,6.424,11.996,10.293c3.173-2.012,1.935-4.798,1.935-7.275c5.417,4.334,8.822,8.9,13.002,13.39    c0.851-0.619,1.547-2.631,2.245-5.882c12.847,12.306,31.033,43.264,4.643,55.569c-22.444-18.188-49.222-31.499-78.941-41.405    c38.155,19.348,60.367,35.059,72.518,48.448c-6.192,24.611-38.697,25.695-50.615,24.998c2.399-1.083,4.488-2.476,5.185-4.489    C168.259,139.428,157.734,141.286,150.305,137.262L150.305,137.262z" style="fill:none;stroke:#000000;stroke-width:10;stroke-linecap:round;stroke-linejoin:round;stroke-miterlimit:10;"/><path d="    M200.411,165.526c15.089,2.514-72.394,77.693-73.741,60.986C125.322,182.771,159.455,158.699,200.411,165.526z" style="fill:none;stroke:#000000;stroke-width:10;stroke-linecap:round;stroke-linejoin:round;stroke-miterlimit:10;"/><path d="    M107.539,333.307c-21.286-16.885-28.113-66.196,11.317-88.291C142.658,238.729,126.939,341.84,107.539,333.307z" style="fill:none;stroke:#000000;stroke-width:10;stroke-linecap:round;stroke-linejoin:round;stroke-miterlimit:10;"/><path d="    M189.274,421.51c-11.947,7.095-41.137,4.221-61.796-25.061c-13.922-24.608-12.125-49.58-2.335-56.944    c14.641-8.804,37.274,3.054,54.699,22.993C195.023,380.462,201.938,412.168,189.274,421.51z" style="fill:none;stroke:#000000;stroke-width:10;stroke-linecap:round;stroke-linejoin:round;stroke-miterlimit:10;"/><path d="    M165.562,313.996c-22.005-14.191-25.958-46.347-8.893-71.855c17.066-25.508,48.772-34.67,70.778-20.478    c22.005,14.19,25.957,46.345,8.892,71.856C219.184,319.026,187.478,328.188,165.562,313.996z" style="fill:none;stroke:#000000;stroke-width:10;stroke-linecap:round;stroke-linejoin:round;stroke-miterlimit:10;"/><path d="    M257.356,471.629c-26.407,1.076-52.275-21.287-51.916-29.013c-0.359-11.406,32.156-20.298,53.263-19.759    c21.286-0.898,49.938,6.735,50.028,16.975C309.182,449.712,282.864,472.076,257.356,471.629L257.356,471.629z" style="fill:none;stroke:#000000;stroke-width:10;stroke-linecap:round;stroke-linejoin:round;stroke-miterlimit:10;"/><path d="    M310.259,359.444c0.18,26.677-23.532,48.322-52.813,48.502c-29.281,0.18-53.172-21.376-53.352-47.964v-0.538    c-0.18-26.677,23.533-48.321,52.813-48.501c29.28-0.181,53.173,21.377,53.352,47.961V359.444z" style="fill:none;stroke:#000000;stroke-width:10;stroke-linecap:round;stroke-linejoin:round;stroke-miterlimit:10;"/><path d="    M384.089,397.798c-22.723,31.077-53.53,32.243-64.938,23.62c-11.946-11.136-2.875-45.715,13.563-64.669    c18.771-20.927,38.892-34.58,52.902-23.891C395.048,342.108,400.617,376.959,384.089,397.798L384.089,397.798z" style="fill:none;stroke:#000000;stroke-width:10;stroke-linecap:round;stroke-linejoin:round;stroke-miterlimit:10;"/><path d="    M404.658,332.049c-19.31,8.444-35.029-94.58-11.317-88.292C432.772,265.944,425.945,315.253,404.658,332.049z" style="fill:none;stroke:#000000;stroke-width:10;stroke-linecap:round;stroke-linejoin:round;stroke-miterlimit:10;"/></g></g><g id="Layer_1"/></svg>